<?xml version="1.0" encoding="UTF-8"?>
<!-- Generated by Pixelmator Pro 3.6.17 -->
<svg width="512" height="512" viewBox="0 0 512 512" xmlns="http://www.w3.org/2000/svg">
    <g id="3">
        <g id="raw-3">
            <path id="Path" fill="#f5f1eb" stroke="none" visibility="hidden" d="M 0 0 L 512 0 L 512 512 L 0 512 Z"/>
            <path id="path1" fill="#2f4a61" stroke="none" d="M 61 120 L 133 120 L 133 232 L 229 120 L 317 120 L 185 272 L 313 392 L 221 392 L 133 308 L 133 392 L 61 392 Z"/>
            <g id="Group">
                <text id="MJ" xml:space="preserve" x="320" y="191" font-family="Helvetica" font-size="96" fill="#2f4a61" letter-spacing="2">MJ</text>
            </g>
        </g>
    </g>
    <g id="2">
        <g id="more-font">
            <path id="path2" fill="#2f4a61" stroke="none" visibility="hidden" d="M 0 0 L 512 0 L 512 512 L 0 512 Z"/>
            <path id="path3" fill="#f5f1eb" stroke="none" visibility="hidden" d="M 144 112 L 208 112 L 208 230 L 328 112 L 416 112 L 282 240 L 420 400 L 330 400 L 208 284 L 208 400 L 144 400 L 144 112 Z"/>
            <g id="g1">
                <text id="text1" visibility="hidden" xml:space="preserve" x="361" y="304" font-family="Helvetica" font-size="112" fill="#f5f1eb" letter-spacing="2">MJ</text>
            </g>
        </g>
        <path id="path4" fill="#f5f1eb" stroke="none" visibility="hidden" d="M 0 0 L 512 0 L 512 512 L 0 512 Z"/>
        <clipPath id="clipPath1">
            <path d="M 256 32 L 432 128 L 432 384 L 256 480 L 80 384 L 80 128 Z"/>
        </clipPath>
        <g id="g2" clip-path="url(#clipPath1)">
            <path id="path5" fill="#2f4a61" stroke="none" visibility="hidden" d="M 0 0 L 512 0 L 512 512 L 0 512 Z"/>
            <path id="path6" fill="#7baa8a" stroke="none" opacity="0.12" visibility="hidden" d="M -16 -16 L 528 -16 L 528 256 L -16 256 Z"/>
        </g>
    </g>
    <g id="1">
        <path id="path7" fill="none" stroke="#7baa8a" stroke-width="16" visibility="hidden" d="M 256 32 L 432 128 L 432 384 L 256 480 L 80 384 L 80 128 Z"/>
        <path id="path8" fill="#f5f1eb" stroke="none" visibility="hidden" d="M 122 124 L 186 124 L 186 216 L 276 124 L 356 124 L 234 256 L 352 372 L 268 372 L 186 290 L 186 372 L 122 372 L 122 124 Z"/>
        <path id="path9" fill="#b25a3c" stroke="none" visibility="hidden" d="M 132 372 L 328 372 C 333.522858 372 338 376.477142 338 382 L 338 382 C 338 387.522858 333.522858 392 328 392 L 132 392 C 126.477158 392 122 387.522858 122 382 L 122 382 C 122 376.477142 126.477158 372 132 372 Z"/>
        <text id="text2" visibility="hidden" xml:space="preserve" x="308" y="276" font-family="Helvetica" font-size="58.731707" fill="#f5f1eb" letter-spacing="1.04878">MJ</text>
    </g>
</svg>
